<svg width="32" height="32" viewBox="0 0 32 32" fill="none" xmlns="http://www.w3.org/2000/svg">
<path fill-rule="evenodd" clip-rule="evenodd" d="M22.0952 9.04762H9.90476C6.11767 9.04762 3.04762 12.1177 3.04762 15.9048C3.04762 19.6919 6.11767 22.7619 9.90476 22.7619H22.0952C25.8823 22.7619 28.9524 19.6919 28.9524 15.9048C28.9524 12.1177 25.8823 9.04762 22.0952 9.04762ZM9.90476 6C4.43451 6 0 10.4345 0 15.9048C0 21.375 4.43451 25.8095 9.90476 25.8095H22.0952C27.5655 25.8095 32 21.375 32 15.9048C32 10.4345 27.5655 6 22.0952 6H9.90476ZM19.8097 19.7143H16.7621V12.0952H19.8097V19.7143ZM9.90608 19.7143C12.01 19.7143 13.7156 18.0087 13.7156 15.9048C13.7156 13.8008 12.01 12.0952 9.90608 12.0952C7.80214 12.0952 6.09655 13.8008 6.09655 15.9048C6.09655 18.0087 7.80214 19.7143 9.90608 19.7143Z" fill="#404040"/>
</svg>
