<svg width="96" height="22" viewBox="0 0 96 22" fill="none" xmlns="http://www.w3.org/2000/svg" aria-label="Inline">
<path d="M90.0474 18.0314C88.8753 18.0314 87.8117 17.7709 86.8567 17.2499C85.9161 16.7145 85.1708 15.9982 84.6209 15.1011C84.0711 14.2039 83.7961 13.1982 83.7961 12.0839C83.7961 10.9697 84.0566 9.96396 84.5775 9.06678C85.1129 8.1696 85.8365 7.46054 86.7481 6.9396C87.6598 6.40418 88.6727 6.13647 89.787 6.13647C90.9157 6.13647 91.9142 6.41142 92.7824 6.9613C93.6506 7.49672 94.3308 8.23472 94.8228 9.17531C95.3292 10.1159 95.5825 11.194 95.5825 12.4095V13.2777H87.3993C87.5585 13.6395 87.7683 13.9579 88.0288 14.2328C88.3037 14.5078 88.6293 14.7248 89.0056 14.884C89.3818 15.0287 89.787 15.1011 90.2211 15.1011C90.6986 15.1011 91.1327 15.0287 91.5235 14.884C91.9142 14.7248 92.247 14.5078 92.5219 14.2328L94.8445 16.2949C94.1209 16.9026 93.3757 17.344 92.6087 17.6189C91.8563 17.8939 91.0025 18.0314 90.0474 18.0314ZM87.3342 10.825H92.1312C92.0155 10.4487 91.8346 10.1304 91.5886 9.86991C91.357 9.59496 91.0821 9.38514 90.7637 9.24043C90.4454 9.08125 90.0981 9.00167 89.7219 9.00167C89.3311 9.00167 88.9766 9.07402 88.6583 9.21873C88.3399 9.36343 88.065 9.57326 87.8334 9.8482C87.6164 10.1087 87.45 10.4343 87.3342 10.825Z" fill="white"/>
<path d="M71.0475 17.8143V6.33184H74.5638V7.11325C75.4321 6.4476 76.4595 6.11478 77.6461 6.11478C78.5433 6.11478 79.3319 6.31013 80.012 6.70084C80.7066 7.09155 81.2493 7.6342 81.64 8.32879C82.0307 9.02338 82.226 9.8265 82.226 10.7382V17.8143H78.7097V11.2157C78.7097 10.579 78.5216 10.0725 78.1453 9.69627C77.7691 9.32003 77.2626 9.13191 76.6259 9.13191C76.1773 9.13191 75.7794 9.2115 75.4321 9.37067C75.0992 9.52985 74.8098 9.75415 74.5638 10.0436V17.8143H71.0475Z" fill="white"/>
<path d="M65.3668 17.8143V6.33183H68.8832V17.8143H65.3668ZM67.125 5.26824C66.5896 5.26824 66.1338 5.08012 65.7575 4.70388C65.3813 4.32765 65.1932 3.87182 65.1932 3.3364C65.1932 2.80099 65.3813 2.34516 65.7575 1.96893C66.1338 1.59269 66.5896 1.40457 67.125 1.40457C67.6604 1.40457 68.1163 1.59269 68.4925 1.96893C68.8687 2.34516 69.0568 2.80099 69.0568 3.3364C69.0568 3.87182 68.8687 4.32765 68.4925 4.70388C68.1163 5.08012 67.6604 5.26824 67.125 5.26824Z" fill="white"/>
<path d="M59.6859 17.8143V2.6201L63.2023 2.07745V17.8143H59.6859Z" fill="white"/>
<path d="M46.4164 17.8143V6.8184L49.9328 6.33184V7.11325C50.801 6.4476 51.8284 6.11478 53.015 6.11478C53.9122 6.11478 54.7009 6.31013 55.381 6.70084C56.0756 7.09155 56.6182 7.6342 57.0089 8.32879C57.3996 9.02338 57.595 9.8265 57.595 10.7382V17.8143H54.0786V11.2157C54.0786 10.579 53.8905 10.0725 53.5143 9.69627C53.138 9.32003 52.6316 9.13191 51.9949 9.13191C51.5463 9.13191 51.1483 9.2115 50.801 9.37067C50.4682 9.52985 50.1788 9.75415 49.9328 10.0436V17.8143H46.4164Z" fill="white"/>
<path d="M40.7355 17.8143V6.90531L44.2518 6.33183V17.8143H40.7355ZM42.4937 5.26824C41.9582 5.26824 41.5024 5.08012 41.1262 4.70388C40.7499 4.32765 40.5618 3.87182 40.5618 3.3364C40.5618 2.80099 40.7499 2.34516 41.1262 1.96893C41.5024 1.59269 41.9582 1.40457 42.4937 1.40457C43.0291 1.40457 43.4849 1.59269 43.8611 1.96893C44.2374 2.34516 44.4255 2.80099 44.4255 3.3364C44.4255 3.87182 44.2374 4.32765 43.8611 4.70388C43.4849 5.08012 43.0291 5.26824 42.4937 5.26824Z" fill="white"/>
<path fill-rule="evenodd" clip-rule="evenodd" d="M23.3077 4.07692H11C7.17649 4.07692 4.07692 7.17649 4.07692 11C4.07692 14.8235 7.17649 17.9231 11 17.9231H23.3077C27.1312 17.9231 30.2308 14.8235 30.2308 11C30.2308 7.17649 27.1312 4.07692 23.3077 4.07692ZM11 1C5.47715 1 1 5.47715 1 11C1 16.5228 5.47715 21 11 21H23.3077C28.8305 21 33.3077 16.5228 33.3077 11C33.3077 5.47715 28.8305 1 23.3077 1H11ZM21.0002 14.8462H17.9233V7.15386H21.0002V14.8462ZM11.0013 14.8462C13.1255 14.8462 14.8475 13.1242 14.8475 11C14.8475 8.87584 13.1255 7.15386 11.0013 7.15386C8.87715 7.15386 7.15517 8.87584 7.15517 11C7.15517 13.1242 8.87715 14.8462 11.0013 14.8462Z" fill="white"/>
</svg>
